<svg xmlns="http://www.w3.org/2000/svg" version="1.1" xmlns:xlink="http://www.w3.org/1999/xlink" xmlns:svgjs="http://svgjs.dev/svgjs" width="2000" height="696" viewBox="0 0 2000 696"><g transform="matrix(1,0,0,1,-1.2121212121212466,-2.114347082485608)"><svg viewBox="0 0 396 138" data-background-color="#ffffff" preserveAspectRatio="xMidYMid meet" height="696" width="2000" xmlns="http://www.w3.org/2000/svg" xmlns:xlink="http://www.w3.org/1999/xlink"><g id="tight-bounds" transform="matrix(1,0,0,1,0.2400000000000091,0.41922399049283854)"><svg viewBox="0 0 395.52 137.16155201901432" height="137.16155201901432" width="395.52"><g><svg viewBox="0 0 395.52 137.16155201901432" height="137.16155201901432" width="395.52"><g transform="matrix(1,0,0,1,0,110.82580927172316)"><svg viewBox="0 0 395.52 26.335742747291157" height="26.335742747291157" width="395.52"><g id="textblocktransform"><svg viewBox="0 0 395.52 26.335742747291157" height="26.335742747291157" width="395.52" id="textblock"><g><svg viewBox="0 0 395.52 26.335742747291157" height="26.335742747291157" width="395.52"><g transform="matrix(1,0,0,1,0,0)"><svg width="395.52" viewBox="4.49 -36.01 698.43 46.51" height="26.335742747291157" data-palette-color="#ffffff"><path d="M4.49-5L4.49-30Q4.49-31.03 4.88-31.95 5.27-32.86 5.96-33.53 6.64-34.2 7.56-34.61 8.47-35.01 9.5-35.01L9.5-35.01 28.49-35.01Q29.52-35.01 30.43-34.61 31.35-34.2 32.03-33.53 32.71-32.86 33.11-31.95 33.5-31.03 33.5-30L33.5-30 33.5-25.49 28.49-25.49 28.49-30 9.5-30 9.5-5 28.49-5 28.49-9.5 33.5-9.5 33.5-5Q33.5-3.98 33.11-3.06 32.71-2.15 32.03-1.46 31.35-0.78 30.43-0.39 29.52 0 28.49 0L28.49 0 9.5 0Q8.47 0 7.56-0.39 6.64-0.78 5.96-1.46 5.27-2.15 4.88-3.06 4.49-3.98 4.49-5L4.49-5ZM63.5-21.19L63.5-4.81Q63.5-3.81 63.12-2.93 62.74-2.05 62.09-1.4 61.45-0.76 60.58-0.38 59.71 0 58.71 0L58.71 0 45.8 0Q44.82 0 43.94-0.38 43.06-0.76 42.42-1.4 41.77-2.05 41.39-2.93 41.01-3.81 41.01-4.81L41.01-4.81 41.01-21.19Q41.01-22.19 41.39-23.07 41.77-23.95 42.42-24.6 43.06-25.24 43.94-25.62 44.82-26 45.8-26L45.8-26 58.71-26Q59.71-26 60.58-25.62 61.45-25.24 62.09-24.6 62.74-23.95 63.12-23.07 63.5-22.19 63.5-21.19L63.5-21.19ZM58.71-21.19L45.8-21.19 45.8-4.81 58.71-4.81 58.71-21.19ZM71.5-36.01L76.29-36.01 76.29 0 71.5 0 71.5-36.01ZM84.29-36.01L89.08-36.01 89.08 0 84.29 0 84.29-36.01ZM97.08-4.81L97.08-11.35Q97.08-12.35 97.46-13.22 97.84-14.09 98.49-14.75 99.14-15.41 100.01-15.78 100.89-16.16 101.87-16.16L101.87-16.16 114.27-16.16 114.27-21.19 98.57-21.19 98.57-26 114.27-26Q115.27-26 116.15-25.62 117.03-25.24 117.68-24.6 118.32-23.95 118.7-23.07 119.08-22.19 119.08-21.19L119.08-21.19 119.08 0 114.27 0 114.27-4.39Q114.2-3.49 113.78-2.69 113.37-1.88 112.72-1.28 112.07-0.68 111.24-0.34 110.41 0 109.49 0L109.49 0 101.87 0Q100.89 0 100.01-0.38 99.14-0.76 98.49-1.4 97.84-2.05 97.46-2.93 97.08-3.81 97.08-4.81L97.08-4.81ZM101.87-11.35L101.87-4.81 114.27-4.81 114.27-11.35 101.87-11.35ZM150.09-21.19L150.09-4.81Q150.09-3.81 149.71-2.93 149.33-2.05 148.68-1.4 148.03-0.76 147.16-0.38 146.28 0 145.28 0L145.28 0 131.87 0Q130.9 0 130.02-0.38 129.14-0.76 128.49-1.4 127.84-2.05 127.47-2.93 127.09-3.81 127.09-4.81L127.09-4.81 127.09-36.01 131.87-36.01 131.87-21.41Q131.92-22.36 132.31-23.21 132.7-24.05 133.35-24.67 134-25.29 134.85-25.65 135.71-26 136.68-26L136.68-26 145.28-26Q146.28-26 147.16-25.62 148.03-25.24 148.68-24.6 149.33-23.95 149.71-23.07 150.09-22.19 150.09-21.19L150.09-21.19ZM145.28-21.19L131.87-21.19 131.87-4.81 145.28-4.81 145.28-21.19ZM180.58-21.19L180.58-4.81Q180.58-3.81 180.2-2.93 179.82-2.05 179.17-1.4 178.53-0.76 177.66-0.38 176.79 0 175.79 0L175.79 0 162.88 0Q161.9 0 161.02-0.38 160.14-0.76 159.49-1.4 158.85-2.05 158.47-2.93 158.09-3.81 158.09-4.81L158.09-4.81 158.09-21.19Q158.09-22.19 158.47-23.07 158.85-23.95 159.49-24.6 160.14-25.24 161.02-25.62 161.9-26 162.88-26L162.88-26 175.79-26Q176.79-26 177.66-25.62 178.53-25.24 179.17-24.6 179.82-23.95 180.2-23.07 180.58-22.19 180.58-21.19L180.58-21.19ZM175.79-21.19L162.88-21.19 162.88-4.81 175.79-4.81 175.79-21.19ZM203.28-21.19L193.37-21.19 193.37 0 188.58 0 188.58-26 193.37-26 193.37-21.41Q193.42-22.36 193.81-23.21 194.2-24.05 194.84-24.67 195.49-25.29 196.34-25.65 197.2-26 198.18-26L198.18-26 203.28-26Q204.28-26 205.15-25.62 206.01-25.24 206.67-24.6 207.33-23.95 207.71-23.07 208.09-22.19 208.09-21.19L208.09-21.19 208.09-16.8 203.28-16.8 203.28-21.19ZM214.07-4.81L214.07-11.35Q214.07-12.35 214.45-13.22 214.82-14.09 215.47-14.75 216.12-15.41 217-15.78 217.88-16.16 218.85-16.16L218.85-16.16 231.25-16.16 231.25-21.19 215.56-21.19 215.56-26 231.25-26Q232.26-26 233.13-25.62 234.01-25.24 234.66-24.6 235.31-23.95 235.69-23.07 236.06-22.19 236.06-21.19L236.06-21.19 236.06 0 231.25 0 231.25-4.39Q231.18-3.49 230.77-2.69 230.35-1.88 229.7-1.28 229.06-0.68 228.23-0.34 227.4 0 226.47 0L226.47 0 218.85 0Q217.88 0 217-0.38 216.12-0.76 215.47-1.4 214.82-2.05 214.45-2.93 214.07-3.81 214.07-4.81L214.07-4.81ZM218.85-11.35L218.85-4.81 231.25-4.81 231.25-11.35 218.85-11.35ZM242.56-21.19L242.56-26 248.9-26 248.9-34.01 253.71-34.01 253.71-26 262.26-26 262.26-21.19 253.71-21.19 253.71-4.81 262.26-4.81 262.26 0 253.71 0Q252.74 0 251.86-0.38 250.98-0.76 250.32-1.4 249.66-2.05 249.28-2.93 248.9-3.81 248.9-4.81L248.9-4.81 248.9-21.19 242.56-21.19ZM270.51-26L275.32-26 275.32 0 270.51 0 270.51-26ZM270.26-31.01L270.26-36.01 275.56-36.01 275.56-31.01 270.26-31.01ZM295.97 0L290.96 0 280.56-26 285.57-26 293.45-5.76 301.36-26 306.37-26 295.97 0ZM333.37-21.19L333.37-10.55 316.16-10.55 316.16-4.81 333.37-4.81 333.37 0 316.16 0Q315.18 0 314.3-0.38 313.42-0.76 312.78-1.4 312.13-2.05 311.75-2.93 311.37-3.81 311.37-4.81L311.37-4.81 311.37-21.19Q311.37-22.19 311.75-23.07 312.13-23.95 312.78-24.6 313.42-25.24 314.3-25.62 315.18-26 316.16-26L316.16-26 328.56-26Q329.56-26 330.44-25.62 331.32-25.24 331.96-24.6 332.61-23.95 332.99-23.07 333.37-22.19 333.37-21.19L333.37-21.19ZM328.56-21.19L316.16-21.19 316.16-15.36 328.56-15.36 328.56-21.19ZM353.85-30L353.85-35.01 381.85-35.01 381.85-30 370.35-30 370.35 0 365.35 0 365.35-30 353.85-30ZM384.36-4.81L384.36-11.35Q384.36-12.35 384.74-13.22 385.12-14.09 385.77-14.75 386.41-15.41 387.29-15.78 388.17-16.16 389.15-16.16L389.15-16.16 401.55-16.16 401.55-21.19 385.85-21.19 385.85-26 401.55-26Q402.55-26 403.43-25.62 404.31-25.24 404.96-24.6 405.6-23.95 405.98-23.07 406.36-22.19 406.36-21.19L406.36-21.19 406.36 0 401.55 0 401.55-4.39Q401.48-3.49 401.06-2.69 400.65-1.88 400-1.28 399.35-0.68 398.52-0.34 397.69 0 396.76 0L396.76 0 389.15 0Q388.17 0 387.29-0.38 386.41-0.76 385.77-1.4 385.12-2.05 384.74-2.93 384.36-3.81 384.36-4.81L384.36-4.81ZM389.15-11.35L389.15-4.81 401.55-4.81 401.55-11.35 389.15-11.35ZM413.85-4.81L430.06-4.81 430.06-10.84 418.66-10.84Q417.66-10.84 416.78-11.22 415.9-11.6 415.26-12.24 414.61-12.89 414.23-13.77 413.85-14.65 413.85-15.65L413.85-15.65 413.85-21.19Q413.85-22.19 414.23-23.07 414.61-23.95 415.26-24.6 415.9-25.24 416.78-25.62 417.66-26 418.66-26L418.66-26 433.87-26 433.87-21.19 418.66-21.19 418.66-15.65 430.06-15.65Q431.06-15.65 431.93-15.27 432.8-14.89 433.46-14.25 434.12-13.6 434.49-12.72 434.87-11.84 434.87-10.84L434.87-10.84 434.87-4.81Q434.87-3.81 434.49-2.93 434.12-2.05 433.46-1.4 432.8-0.76 431.93-0.38 431.06 0 430.06 0L430.06 0 413.85 0 413.85-4.81ZM466.31 0L459.55 0 447.15-11.11 447.15 0 442.36 0 442.36-36.01 447.15-36.01 447.15-15.75 458.55-26 465.31-26 451.35-13.45 466.31 0ZM504.84 0L503.35 0 490.28-25.66 490.28 0 485.28 0 485.28-35.01 490.75-35.01 504.08-8.64 517.43-35.01 522.88-35.01 522.88 0 517.9 0 517.9-25.66 504.84 0ZM531.4-4.81L531.4-11.35Q531.4-12.35 531.77-13.22 532.15-14.09 532.8-14.75 533.45-15.41 534.33-15.78 535.2-16.16 536.18-16.16L536.18-16.16 548.58-16.16 548.58-21.19 532.88-21.19 532.88-26 548.58-26Q549.58-26 550.46-25.62 551.34-25.24 551.99-24.6 552.64-23.95 553.01-23.07 553.39-22.19 553.39-21.19L553.39-21.19 553.39 0 548.58 0 548.58-4.39Q548.51-3.49 548.09-2.69 547.68-1.88 547.03-1.28 546.39-0.68 545.56-0.34 544.73 0 543.8 0L543.8 0 536.18 0Q535.2 0 534.33-0.38 533.45-0.76 532.8-1.4 532.15-2.05 531.77-2.93 531.4-3.81 531.4-4.81L531.4-4.81ZM536.18-11.35L536.18-4.81 548.58-4.81 548.58-11.35 536.18-11.35ZM584.4-21.19L584.4 0 579.59 0 579.59-21.19 566.18-21.19 566.18 0 561.4 0 561.4-26 566.18-26 566.18-21.41Q566.23-22.36 566.62-23.21 567.01-24.05 567.66-24.67 568.31-25.29 569.16-25.65 570.02-26 570.99-26L570.99-26 579.59-26Q580.59-26 581.47-25.62 582.34-25.24 582.99-24.6 583.64-23.95 584.02-23.07 584.4-22.19 584.4-21.19L584.4-21.19ZM592.4-4.81L592.4-11.35Q592.4-12.35 592.78-13.22 593.16-14.09 593.8-14.75 594.45-15.41 595.33-15.78 596.21-16.16 597.19-16.16L597.19-16.16 609.59-16.16 609.59-21.19 593.89-21.19 593.89-26 609.59-26Q610.59-26 611.47-25.62 612.35-25.24 612.99-24.6 613.64-23.95 614.02-23.07 614.4-22.19 614.4-21.19L614.4-21.19 614.4 0 609.59 0 609.59-4.39Q609.52-3.49 609.1-2.69 608.69-1.88 608.04-1.28 607.39-0.68 606.56-0.34 605.73 0 604.8 0L604.8 0 597.19 0Q596.21 0 595.33-0.38 594.45-0.76 593.8-1.4 593.16-2.05 592.78-2.93 592.4-3.81 592.4-4.81L592.4-4.81ZM597.19-11.35L597.19-4.81 609.59-4.81 609.59-11.35 597.19-11.35ZM622.4-5.81L622.4-21.19Q622.4-22.19 622.78-23.07 623.16-23.95 623.81-24.6 624.45-25.24 625.33-25.62 626.21-26 627.19-26L627.19-26 635.81-26Q636.76-26 637.61-25.65 638.47-25.29 639.11-24.67 639.76-24.05 640.16-23.21 640.57-22.36 640.59-21.41L640.59-21.41 640.59-26 645.4-26 645.4 5.69Q645.4 6.69 645.02 7.57 644.64 8.45 644 9.09 643.35 9.74 642.47 10.12 641.59 10.5 640.59 10.5L640.59 10.5 625.41 10.5 625.41 5.69 640.59 5.69 640.59-1 627.19-1Q626.21-1 625.33-1.38 624.45-1.76 623.81-2.4 623.16-3.05 622.78-3.93 622.4-4.81 622.4-5.81L622.4-5.81ZM627.19-5.81L640.59-5.81 640.59-21.19 627.19-21.19 627.19-5.81ZM675.4-21.19L675.4-10.55 658.19-10.55 658.19-4.81 675.4-4.81 675.4 0 658.19 0Q657.22 0 656.34-0.38 655.46-0.76 654.81-1.4 654.16-2.05 653.79-2.93 653.41-3.81 653.41-4.81L653.41-4.81 653.41-21.19Q653.41-22.19 653.79-23.07 654.16-23.95 654.81-24.6 655.46-25.24 656.34-25.62 657.22-26 658.19-26L658.19-26 670.59-26Q671.6-26 672.47-25.62 673.35-25.24 674-24.6 674.65-23.95 675.03-23.07 675.4-22.19 675.4-21.19L675.4-21.19ZM670.59-21.19L658.19-21.19 658.19-15.36 670.59-15.36 670.59-21.19ZM698.11-21.19L688.19-21.19 688.19 0 683.41 0 683.41-26 688.19-26 688.19-21.41Q688.24-22.36 688.63-23.21 689.02-24.05 689.67-24.67 690.32-25.29 691.17-25.65 692.03-26 693-26L693-26 698.11-26Q699.11-26 699.97-25.62 700.84-25.24 701.5-24.6 702.16-23.95 702.54-23.07 702.92-22.19 702.92-21.19L702.92-21.19 702.92-16.8 698.11-16.8 698.11-21.19Z" opacity="1" transform="matrix(1,0,0,1,0,0)" fill="#ffffff" class="wordmark-text-0" data-fill-palette-color="primary" id="text-0"></path></svg></g></svg></g></svg></g></svg></g><g transform="matrix(1,0,0,1,150.1186413701503,0)"><svg viewBox="0 0 95.2827172596994 95.2827172596994" height="95.2827172596994" width="95.2827172596994"><g><svg viewBox="0 0 95.2827172596994 95.2827172596994" height="95.2827172596994" width="95.2827172596994"><g transform="matrix(1,0,0,1,25.18300679511172,25.601036687921162)"><svg viewBox="0 0 44.91670366947596 44.08064388385707" height="44.08064388385707" width="44.91670366947596"><g><svg xmlns="http://www.w3.org/2000/svg" data-name="Layer 1" viewBox="1.7376121715846855 2.3217761049604704 60.81011668697025 59.67822389503953" x="0" y="0" height="44.08064388385707" width="44.91670366947596" class="icon-dxe-0" data-fill-palette-color="accent" id="dxe-0"><rect x="23.00574" y="56" width="19" height="6" fill="#d6350e" data-fill-palette-color="accent"></rect><path d="M29.992 21.932A2.494 2.494 0 0 0 27.248 19.57 2.6 2.6 0 0 0 25.006 22.2V33.556A4 4 0 0 0 21.006 37.556V47.23A3.84 3.84 0 0 0 23.09 50.6 3.62 3.62 0 0 1 25.006 53.792V55H40.006V52.556L41.989 50.734A5.06 5.06 0 0 0 44.006 46.693V31.556A4 4 0 0 0 40.006 27.556V23.234A2.62 2.62 0 0 0 37.73 20.566 2.497 2.497 0 0 0 35.012 23H35.506V38.443H34.506V23H35.006V20.234A2.62 2.62 0 0 0 32.73 17.566 2.5 2.5 0 0 0 30.006 20.056V21.932H30.506V37.376H29.506V21.932ZM25.27 42.138H24.269V34.138H25.269ZM39.506 28H40.506V38.443H39.506Z" fill="#d6350e" data-fill-palette-color="accent"></path><rect x="0.72289" y="8.43754" width="19.00002" height="5.00001" transform="translate(-4.73979 10.43222) rotate(-45)" fill="#d6350e" data-fill-palette-color="accent"></rect><rect x="51.56245" y="1.30705" width="4.99998" height="19.00004" transform="translate(8.19277 41.39323) rotate(-45)" fill="#d6350e" data-fill-palette-color="accent"></rect><path d="M44.556 9.707L41.865 9.593A5.06 5.06 0 0 0 37.582 11.024L32.077 16.53 26.324 10.775A3.84 3.84 0 0 0 22.466 9.866 3.62 3.62 0 0 1 18.855 8.963L18.001 8.109 7.394 18.716 9.122 20.444 9.008 23.134A5.06 5.06 0 0 0 10.44 27.419L20.052 37.031A5 5 0 0 1 21.743 33.77L18.748 30.778 19.455 30.07 22.584 33.198A5 5 0 0 1 24.006 32.658V28.962L22.284 27.241 22.99 26.534 24.006 27.549V22.2A3.61 3.61 0 0 1 27.148 18.574 3.5 3.5 0 0 1 28.14 18.62L26.91 17.389 27.618 16.683 29.413 18.48A3.54 3.54 0 0 1 32.816 16.57 3.6 3.6 0 0 1 35.991 19.902 3.56 3.56 0 0 1 37.816 19.57 3.62 3.62 0 0 1 41.006 23.233V26.657A5 5 0 0 1 44.822 30.282L47.61 27.494 48.318 28.2 45.002 31.516C45.002 31.53 45.006 31.543 45.006 31.556V34.877A3.96 3.96 0 0 0 47.385 33.749L54.225 26.908A3.84 3.84 0 0 0 55.134 23.05 3.62 3.62 0 0 1 56.037 19.44L56.891 18.584 46.284 7.98Z" fill="#d6350e" data-fill-palette-color="accent"></path></svg></g></svg></g><g id="text-0"><path d="M5.524 36.412l-3.529-1.117c-0.098-0.031-0.183-0.079-0.255-0.146-0.081-0.061-0.14-0.134-0.178-0.217-0.045-0.086-0.073-0.177-0.086-0.275-0.012-0.097-0.003-0.195 0.028-0.292v0l0.848-2.679c0.031-0.098 0.08-0.186 0.149-0.265 0.066-0.072 0.142-0.131 0.227-0.175 0.077-0.04 0.168-0.065 0.271-0.075 0.097-0.012 0.195-0.003 0.293 0.028v0l0.635 0.201-0.226 0.713-0.635-0.201-0.848 2.679 3.529 1.117 0.848-2.679-0.635-0.201 0.225-0.713 0.636 0.201c0.098 0.031 0.183 0.079 0.255 0.145 0.072 0.066 0.132 0.139 0.178 0.218 0.045 0.086 0.07 0.176 0.076 0.271 0.01 0.104 0 0.204-0.031 0.302v0l-0.848 2.679c-0.031 0.098-0.079 0.183-0.145 0.255-0.059 0.074-0.132 0.134-0.218 0.178-0.086 0.045-0.176 0.07-0.271 0.076-0.097 0.012-0.195 0.003-0.293-0.028z" fill="#d6350e" data-fill-palette-color="accent"></path><path d="M6.644 26.928l2.209 1.012c0.087 0.04 0.162 0.097 0.226 0.171 0.06 0.065 0.107 0.143 0.141 0.234 0.03 0.082 0.046 0.171 0.046 0.269-0.003 0.089-0.026 0.18-0.068 0.273v0l-0.795 1.734c-0.04 0.087-0.094 0.164-0.161 0.23-0.074 0.064-0.152 0.111-0.234 0.141-0.088 0.027-0.177 0.043-0.269 0.046-0.095-0.006-0.186-0.029-0.273-0.068v0l-2.21-1.012c-0.093-0.043-0.17-0.097-0.23-0.162-0.064-0.074-0.111-0.152-0.141-0.234-0.037-0.084-0.052-0.174-0.046-0.269 0-0.098 0.019-0.19 0.059-0.277v0l0.794-1.734c0.043-0.093 0.1-0.169 0.171-0.226 0.068-0.067 0.146-0.114 0.234-0.141 0.084-0.037 0.174-0.052 0.269-0.046 0.092-0.003 0.184 0.017 0.278 0.059zM6.345 27.581l-0.794 1.734 2.209 1.011 0.794-1.734z" fill="#d6350e" data-fill-palette-color="accent"></path><path d="M5.617 24.276l0.347-0.617 4.647 2.614-0.347 0.616z" fill="#d6350e" data-fill-palette-color="accent"></path><path d="M6.963 22.05l0.38-0.597 4.5 2.859-0.379 0.598z" fill="#d6350e" data-fill-palette-color="accent"></path><path d="M12.185 22.624l-0.776-0.588c-0.076-0.058-0.14-0.127-0.19-0.208-0.041-0.082-0.07-0.168-0.087-0.259-0.012-0.086-0.007-0.177 0.014-0.273 0.026-0.091 0.069-0.175 0.126-0.251v0l1.108-1.463-0.597-0.452-1.405 1.855-0.572-0.433 1.405-1.856c0.062-0.082 0.134-0.143 0.216-0.183 0.081-0.05 0.167-0.079 0.259-0.087 0.09-0.017 0.181-0.013 0.273 0.013 0.09 0.017 0.176 0.056 0.258 0.118v0l2.501 1.895-0.433 0.572-0.515-0.39c0.067 0.059 0.118 0.128 0.153 0.206 0.041 0.082 0.064 0.164 0.07 0.246 0.008 0.092 0.001 0.18-0.022 0.267-0.022 0.086-0.06 0.164-0.113 0.235v0l-0.681 0.899c-0.058 0.076-0.127 0.14-0.208 0.19-0.086 0.046-0.173 0.075-0.259 0.087-0.092 0.008-0.183 0.003-0.273-0.014-0.091-0.026-0.175-0.069-0.252-0.126zM11.836 21.472l0.777 0.588 1.108-1.463-0.777-0.588z" fill="#d6350e" data-fill-palette-color="accent"></path><path d="M15.805 14.729l1.761 1.675c0.069 0.066 0.124 0.142 0.165 0.228 0.031 0.086 0.05 0.175 0.058 0.267-0.003 0.092-0.017 0.182-0.044 0.269-0.036 0.088-0.088 0.167-0.154 0.236v0l-1.371 1.442c-0.066 0.069-0.142 0.124-0.228 0.165-0.091 0.036-0.18 0.055-0.267 0.057-0.092-0.003-0.182-0.017-0.269-0.044-0.088-0.036-0.167-0.088-0.236-0.153v0l-3.351-3.187 0.488-0.513 1.567 1.491c-0.065-0.071-0.115-0.147-0.15-0.228-0.031-0.086-0.048-0.173-0.05-0.26 0.003-0.092 0.02-0.179 0.051-0.262 0.027-0.088 0.073-0.166 0.139-0.236v0l0.884-0.929c0.066-0.069 0.144-0.122 0.235-0.158 0.081-0.036 0.17-0.055 0.267-0.057 0.087-0.002 0.177 0.013 0.269 0.044 0.083 0.032 0.162 0.083 0.236 0.153zM15.318 15.242l-1.371 1.441 1.761 1.675 1.371-1.441z" fill="#d6350e" data-fill-palette-color="accent"></path><path d="M19.754 11.374l1.56 1.863c0.061 0.073 0.105 0.157 0.131 0.252 0.026 0.085 0.035 0.175 0.027 0.272-0.008 0.087-0.032 0.174-0.074 0.262-0.041 0.079-0.101 0.151-0.18 0.218v0l-1.462 1.224c-0.073 0.061-0.155 0.108-0.245 0.139-0.094 0.026-0.185 0.035-0.272 0.027-0.091-0.013-0.179-0.038-0.262-0.075-0.083-0.046-0.156-0.106-0.218-0.179v0l-1.56-1.863c-0.066-0.079-0.112-0.16-0.138-0.245-0.026-0.094-0.035-0.185-0.027-0.272 0.003-0.092 0.028-0.179 0.074-0.263 0.042-0.088 0.099-0.163 0.173-0.224v0l1.462-1.225c0.079-0.066 0.163-0.109 0.251-0.131 0.09-0.031 0.181-0.04 0.272-0.027 0.092 0.003 0.179 0.028 0.263 0.075 0.084 0.037 0.159 0.094 0.225 0.172zM19.204 11.835l-1.463 1.225 1.561 1.863 1.462-1.225z" fill="#d6350e" data-fill-palette-color="accent"></path><path d="M23.07 9.117l-1.218 0.816 1.745 2.607-0.588 0.394-2.145-3.204 0.588-0.393 0.383 0.57c-0.048-0.083-0.08-0.169-0.098-0.255-0.012-0.091-0.009-0.179 0.008-0.265 0.023-0.089 0.058-0.171 0.108-0.245 0.045-0.08 0.108-0.146 0.187-0.199v0l0.631-0.422c0.085-0.057 0.173-0.091 0.264-0.103 0.093-0.021 0.184-0.02 0.273 0.002 0.091 0.013 0.175 0.047 0.254 0.102 0.08 0.045 0.148 0.111 0.205 0.196v0l0.359 0.537-0.596 0.399z" fill="#d6350e" data-fill-palette-color="accent"></path><path d="M26.15 10.125l-0.459-0.86c-0.045-0.084-0.073-0.174-0.085-0.268-0.002-0.092 0.007-0.182 0.029-0.272 0.025-0.083 0.067-0.164 0.127-0.241 0.062-0.072 0.136-0.131 0.22-0.176v0l1.619-0.865-0.352-0.66-2.054 1.096-0.338-0.633 2.053-1.096c0.09-0.048 0.182-0.074 0.274-0.076 0.094-0.012 0.185-0.002 0.271 0.029 0.089 0.022 0.17 0.064 0.242 0.127 0.075 0.053 0.136 0.125 0.185 0.215v0l1.478 2.768-0.634 0.338-0.304-0.57c0.036 0.082 0.053 0.165 0.053 0.251 0.002 0.092-0.011 0.176-0.039 0.253-0.031 0.086-0.075 0.164-0.132 0.233-0.056 0.069-0.124 0.124-0.202 0.166v0l-0.995 0.531c-0.084 0.045-0.174 0.073-0.268 0.086-0.098 0.006-0.188-0.004-0.271-0.03-0.086-0.031-0.167-0.073-0.242-0.126-0.072-0.062-0.131-0.136-0.176-0.22zM26.315 8.932l0.459 0.859 1.619-0.864-0.459-0.86z" fill="#d6350e" data-fill-palette-color="accent"></path><path d="M29.364 5.813l-0.269-0.666 0.875-0.353-0.442-1.093 0.656-0.265 0.442 1.093 1.179-0.476 0.268 0.666-1.179 0.476 0.91 2.253 1.179-0.476 0.265 0.656-1.179 0.476c-0.089 0.036-0.181 0.055-0.276 0.057-0.091-0.007-0.18-0.027-0.267-0.059-0.083-0.04-0.158-0.091-0.227-0.151-0.065-0.07-0.115-0.149-0.151-0.238v0l-0.91-2.253z" fill="#d6350e" data-fill-palette-color="accent"></path><path d="M33.591 3.466l0.684-0.219 1.174 3.673-0.683 0.218zM33.337 2.772l-0.225-0.703 0.743-0.237 0.225 0.703z" fill="#d6350e" data-fill-palette-color="accent"></path><path d="M38.765 6.13l-0.72 0.161-2.353-3.425 0.731-0.163 1.796 2.677 0.485-3.187 0.721-0.162z" fill="#d6350e" data-fill-palette-color="accent"></path><path d="M44.189 2.134l0.193 1.567-2.534 0.313 0.105 0.845 2.534-0.313 0.086 0.702-2.534 0.313c-0.095 0.012-0.189 0.006-0.281-0.017-0.093-0.03-0.174-0.071-0.242-0.125-0.069-0.06-0.13-0.129-0.181-0.205-0.045-0.084-0.073-0.173-0.085-0.269v0l-0.298-2.411c-0.013-0.102-0.007-0.195 0.017-0.281 0.03-0.093 0.071-0.174 0.125-0.243 0.053-0.075 0.121-0.136 0.205-0.181 0.083-0.052 0.172-0.083 0.268-0.095v0l1.821-0.225c0.102-0.013 0.196-0.004 0.283 0.028 0.092 0.023 0.173 0.065 0.242 0.125 0.075 0.053 0.136 0.121 0.181 0.205 0.051 0.076 0.082 0.165 0.095 0.267zM43.476 2.222l-1.821 0.225 0.105 0.855 1.822-0.225z" fill="#d6350e" data-fill-palette-color="accent"></path><path d="M48.564 0.747l0.044-0.747 4.135 0.241-0.043 0.748-1.7-0.1-0.258 4.433-0.737-0.043 0.258-4.433z" fill="#d6350e" data-fill-palette-color="accent"></path><path d="M53.255 4.838l0.148-0.963c0.015-0.095 0.045-0.183 0.092-0.266 0.053-0.075 0.115-0.141 0.187-0.2 0.07-0.051 0.152-0.091 0.246-0.117 0.093-0.02 0.187-0.023 0.281-0.009v0l1.815 0.279 0.113-0.74-2.301-0.354 0.109-0.709 2.301 0.353c0.101 0.016 0.189 0.05 0.264 0.103 0.083 0.047 0.149 0.109 0.2 0.186 0.058 0.071 0.097 0.153 0.118 0.247 0.028 0.087 0.034 0.182 0.019 0.283v0l-0.477 3.101-0.709-0.109 0.098-0.638c-0.02 0.087-0.056 0.164-0.108 0.232-0.053 0.075-0.114 0.135-0.183 0.179-0.077 0.05-0.159 0.086-0.245 0.108-0.086 0.021-0.173 0.025-0.261 0.012v0l-1.115-0.171c-0.095-0.015-0.183-0.045-0.266-0.093-0.082-0.054-0.148-0.116-0.2-0.186-0.05-0.077-0.09-0.159-0.118-0.247-0.02-0.093-0.023-0.187-0.008-0.281zM54.102 3.982l-0.148 0.963 1.814 0.279 0.148-0.963z" fill="#d6350e" data-fill-palette-color="accent"></path><path d="M57.925 5.699l2.328 0.623 0.233-0.872-1.635-0.437c-0.099-0.026-0.184-0.067-0.254-0.121-0.077-0.056-0.136-0.125-0.178-0.207-0.05-0.077-0.08-0.163-0.09-0.257-0.017-0.096-0.013-0.191 0.012-0.284v0l0.212-0.792c0.026-0.099 0.07-0.183 0.131-0.252 0.056-0.077 0.125-0.136 0.207-0.178 0.077-0.05 0.163-0.08 0.257-0.09 0.09-0.018 0.184-0.014 0.284 0.012v0l2.179 0.583-0.186 0.693-2.179-0.583-0.212 0.793 1.635 0.437c0.092 0.025 0.177 0.065 0.254 0.121 0.069 0.061 0.128 0.13 0.178 0.207 0.042 0.082 0.072 0.168 0.09 0.257 0.01 0.095 0.003 0.188-0.022 0.281v0l-0.233 0.872c-0.025 0.092-0.065 0.177-0.121 0.254-0.061 0.069-0.13 0.128-0.207 0.178-0.082 0.042-0.168 0.072-0.257 0.091-0.095 0.01-0.188 0.003-0.281-0.022v0l-2.328-0.623z" fill="#d6350e" data-fill-palette-color="accent"></path><path d="M65.398 8.969l-0.936-0.364-1.118-2.194-0.594 1.53-0.659-0.256 1.929-4.971 0.66 0.256-1.087 2.801 2.13-0.812 0.927 0.36-2.597 0.994z" fill="#d6350e" data-fill-palette-color="accent"></path><path d="M70.95 12.123l-0.183-0.114 0.361-4.254-2.007 3.232-0.627-0.39 2.737-4.408 0.688 0.428-0.388 4.357 3.742-2.275 0.688 0.427-2.737 4.408-0.627-0.389 2.007-3.232z" fill="#d6350e" data-fill-palette-color="accent"></path><path d="M74.839 13.968l0.624-0.748c0.061-0.073 0.134-0.133 0.217-0.179 0.084-0.037 0.172-0.062 0.263-0.075 0.087-0.008 0.177 0.001 0.271 0.026 0.09 0.031 0.172 0.077 0.246 0.138v0l1.409 1.176 0.48-0.575-1.788-1.491 0.46-0.551 1.788 1.491c0.079 0.066 0.136 0.141 0.173 0.224 0.046 0.083 0.071 0.171 0.074 0.263 0.013 0.091 0.004 0.182-0.026 0.272-0.021 0.089-0.064 0.173-0.13 0.252v0l-2.01 2.409-0.551-0.459 0.414-0.497c-0.062 0.064-0.133 0.112-0.213 0.143-0.084 0.037-0.167 0.056-0.25 0.059-0.092 0.003-0.18-0.008-0.265-0.034-0.085-0.026-0.161-0.068-0.229-0.125v0l-0.867-0.722c-0.073-0.061-0.133-0.134-0.179-0.217-0.042-0.088-0.067-0.176-0.075-0.262-0.003-0.092 0.005-0.182 0.026-0.272 0.031-0.09 0.077-0.172 0.138-0.246zM76.007 13.674l-0.624 0.748 1.409 1.175 0.624-0.748z" fill="#d6350e" data-fill-palette-color="accent"></path><path d="M82.555 17.956l-2.267 2.169-0.489-0.511 2.267-2.169-1.375-1.438-2.268 2.17-0.489-0.512 2.786-2.665 0.489 0.511-0.496 0.475c0.074-0.061 0.152-0.108 0.235-0.14 0.088-0.027 0.175-0.04 0.262-0.037 0.092 0.007 0.178 0.028 0.26 0.063 0.086 0.031 0.163 0.081 0.228 0.15v0l0.886 0.927c0.066 0.069 0.115 0.15 0.147 0.242 0.032 0.083 0.047 0.173 0.045 0.27-0.002 0.087-0.021 0.176-0.057 0.267-0.036 0.081-0.091 0.158-0.164 0.228z" fill="#d6350e" data-fill-palette-color="accent"></path><path d="M81.77 20.877l0.774-0.59c0.076-0.058 0.16-0.1 0.252-0.127 0.09-0.017 0.181-0.022 0.272-0.015 0.086 0.012 0.173 0.04 0.259 0.086 0.081 0.05 0.151 0.113 0.209 0.19v0l1.112 1.46 0.596-0.454-1.411-1.852 0.571-0.434 1.411 1.851c0.062 0.082 0.102 0.167 0.119 0.258 0.027 0.091 0.031 0.182 0.014 0.272-0.008 0.092-0.036 0.178-0.086 0.259-0.04 0.082-0.101 0.155-0.183 0.217v0l-2.496 1.901-0.435-0.571 0.514-0.391c-0.075 0.048-0.155 0.079-0.24 0.092-0.09 0.017-0.176 0.018-0.256 0.002-0.09-0.017-0.174-0.048-0.251-0.092-0.077-0.045-0.142-0.102-0.196-0.173v0l-0.683-0.898c-0.058-0.076-0.1-0.16-0.127-0.251-0.021-0.096-0.026-0.186-0.015-0.272 0.017-0.09 0.046-0.177 0.086-0.26 0.05-0.081 0.113-0.151 0.19-0.208zM82.973 20.849l-0.775 0.591 1.113 1.46 0.775-0.591z" fill="#d6350e" data-fill-palette-color="accent"></path><path d="M84.703 24.728l1.954-1.168c0.088-0.053 0.176-0.085 0.264-0.098 0.097-0.01 0.188-0.005 0.273 0.016 0.09 0.018 0.173 0.056 0.247 0.115 0.081 0.055 0.146 0.124 0.195 0.206v0l0.653 1.091c0.049 0.082 0.077 0.169 0.084 0.26 0.016 0.094 0.014 0.183-0.008 0.268-0.018 0.09-0.053 0.171-0.105 0.242-0.049 0.077-0.113 0.143-0.192 0.199v0l0.589-0.353 0.363 0.607-4.03 2.411c-0.088 0.053-0.176 0.085-0.264 0.098-0.097 0.01-0.188 0.005-0.273-0.016-0.094-0.024-0.176-0.062-0.247-0.115-0.081-0.055-0.146-0.124-0.195-0.206v0l-1.158-1.936 0.616-0.369 1.158 1.936 0.845-0.505-1.022-1.707c-0.049-0.082-0.079-0.172-0.089-0.269-0.016-0.094-0.011-0.185 0.016-0.273 0.021-0.084 0.059-0.167 0.115-0.248 0.053-0.071 0.123-0.133 0.211-0.186zM85.067 25.336l1.021 1.707 1.953-1.169-1.021-1.707z" fill="#d6350e" data-fill-palette-color="accent"></path><path d="M90.552 31.117l-1.438 0.653-1.057-2.324-0.775 0.353 1.057 2.324-0.644 0.293-1.057-2.324c-0.04-0.087-0.062-0.178-0.068-0.274 0.001-0.098 0.016-0.188 0.047-0.269 0.037-0.084 0.084-0.162 0.142-0.233 0.067-0.068 0.144-0.122 0.23-0.161v0l2.213-1.007c0.093-0.042 0.184-0.065 0.273-0.067 0.098 0.001 0.188 0.016 0.269 0.046 0.088 0.028 0.166 0.075 0.233 0.142 0.074 0.064 0.131 0.139 0.171 0.226v0l0.76 1.671c0.042 0.093 0.062 0.186 0.058 0.278 0.006 0.095-0.01 0.185-0.046 0.269-0.028 0.088-0.075 0.166-0.142 0.233-0.058 0.071-0.133 0.128-0.226 0.171zM90.254 30.463l-0.76-1.671-0.784 0.357 0.76 1.671z" fill="#d6350e" data-fill-palette-color="accent"></path><path d="M91.844 34.913l-0.462-1.392-2.978 0.988-0.223-0.671 3.66-1.215 0.222 0.672-0.652 0.216c0.093-0.024 0.184-0.032 0.273-0.025 0.091 0.013 0.175 0.039 0.253 0.078 0.08 0.045 0.149 0.102 0.207 0.169 0.065 0.065 0.112 0.143 0.142 0.233v0l0.239 0.72c0.032 0.097 0.042 0.191 0.029 0.283-0.004 0.095-0.029 0.183-0.075 0.262-0.037 0.084-0.092 0.157-0.165 0.217-0.065 0.065-0.146 0.113-0.244 0.146v0l-0.613 0.203-0.226-0.681z" fill="#d6350e" data-fill-palette-color="accent"></path><path d="M3.261 61.014l3.529-1.117c0.098-0.031 0.195-0.04 0.292-0.028 0.102 0.004 0.192 0.029 0.272 0.075 0.086 0.045 0.162 0.103 0.227 0.175 0.066 0.072 0.114 0.157 0.146 0.256v0l0.847 2.678c0.031 0.098 0.041 0.198 0.032 0.302-0.012 0.097-0.041 0.189-0.086 0.275-0.04 0.077-0.1 0.15-0.178 0.217-0.072 0.066-0.157 0.114-0.255 0.146v0l-0.636 0.201-0.226-0.714 0.636-0.201-0.848-2.678-3.529 1.117 0.848 2.678 0.635-0.201 0.226 0.714-0.635 0.201c-0.098 0.031-0.195 0.04-0.293 0.028-0.097-0.012-0.188-0.037-0.271-0.076-0.086-0.045-0.158-0.104-0.218-0.178-0.068-0.079-0.117-0.167-0.148-0.265v0l-0.848-2.679c-0.031-0.098-0.04-0.195-0.028-0.292 0.006-0.095 0.031-0.185 0.076-0.271 0.045-0.086 0.104-0.158 0.178-0.218 0.072-0.066 0.157-0.114 0.255-0.145z" fill="#d6350e" data-fill-palette-color="accent"></path><path d="M8.848 68.771l-2.209 1.012c-0.087 0.04-0.179 0.06-0.277 0.06-0.089 0.003-0.179-0.012-0.27-0.046-0.082-0.03-0.159-0.077-0.233-0.141-0.065-0.06-0.119-0.137-0.162-0.231v0l-0.794-1.734c-0.04-0.087-0.063-0.178-0.069-0.273 0-0.098 0.016-0.188 0.046-0.269 0.037-0.084 0.084-0.162 0.141-0.234 0.067-0.068 0.143-0.122 0.23-0.162v0l2.21-1.011c0.093-0.043 0.184-0.066 0.273-0.069 0.098 0 0.188 0.016 0.269 0.046 0.088 0.027 0.166 0.074 0.234 0.141 0.074 0.064 0.131 0.139 0.171 0.226v0l0.794 1.734c0.043 0.093 0.062 0.186 0.059 0.277 0.006 0.095-0.009 0.185-0.045 0.269-0.027 0.088-0.074 0.166-0.142 0.234-0.058 0.071-0.133 0.129-0.226 0.171zM8.55 68.119l-0.795-1.734-2.209 1.012 0.794 1.734z" fill="#d6350e" data-fill-palette-color="accent"></path><path d="M11.556 69.093l0.347 0.617-4.648 2.614-0.347-0.617z" fill="#d6350e" data-fill-palette-color="accent"></path><path d="M12.714 71.005l0.38 0.597-4.501 2.86-0.379-0.598z" fill="#d6350e" data-fill-palette-color="accent"></path><path d="M10.244 75.555l0.776-0.588c0.076-0.058 0.16-0.1 0.252-0.126 0.09-0.017 0.181-0.021 0.273-0.014 0.086 0.012 0.172 0.041 0.259 0.087 0.081 0.05 0.15 0.113 0.208 0.19v0l1.108 1.463 0.596-0.452-1.405-1.855 0.572-0.433 1.406 1.855c0.062 0.082 0.101 0.168 0.118 0.258 0.026 0.091 0.031 0.182 0.013 0.273-0.008 0.092-0.037 0.178-0.087 0.258-0.041 0.082-0.102 0.154-0.183 0.217v0l-2.501 1.894-0.434-0.572 0.515-0.39c-0.075 0.048-0.155 0.079-0.239 0.091-0.09 0.017-0.176 0.017-0.257 0.001-0.09-0.017-0.174-0.048-0.25-0.093-0.077-0.045-0.142-0.103-0.196-0.173v0l-0.681-0.899c-0.058-0.076-0.1-0.16-0.126-0.252-0.021-0.096-0.025-0.187-0.014-0.273 0.017-0.09 0.046-0.177 0.087-0.259 0.05-0.081 0.113-0.15 0.19-0.208zM11.448 75.531l-0.777 0.588 1.108 1.464 0.777-0.588z" fill="#d6350e" data-fill-palette-color="accent"></path><path d="M17.562 80.309l-1.76 1.674c-0.069 0.066-0.148 0.117-0.236 0.154-0.088 0.027-0.178 0.041-0.27 0.044-0.092-0.007-0.181-0.026-0.267-0.057-0.086-0.041-0.162-0.096-0.228-0.166v0l-1.371-1.441c-0.066-0.069-0.117-0.148-0.153-0.236-0.032-0.093-0.046-0.182-0.044-0.269 0.007-0.092 0.026-0.181 0.057-0.267 0.041-0.086 0.096-0.162 0.165-0.228v0l3.351-3.187 0.488 0.512-1.568 1.491c0.074-0.061 0.153-0.107 0.236-0.139 0.088-0.027 0.175-0.039 0.262-0.037 0.092 0.007 0.178 0.029 0.259 0.065 0.086 0.031 0.162 0.081 0.229 0.151v0l0.883 0.928c0.066 0.069 0.115 0.15 0.146 0.243 0.032 0.083 0.046 0.173 0.044 0.27-0.002 0.087-0.021 0.176-0.057 0.267-0.036 0.081-0.091 0.157-0.166 0.228zM17.075 79.796l-1.371-1.441-1.761 1.674 1.371 1.442z" fill="#d6350e" data-fill-palette-color="accent"></path><path d="M21.311 83.476l-1.561 1.863c-0.061 0.073-0.136 0.131-0.225 0.173-0.079 0.041-0.166 0.066-0.262 0.074-0.087 0.008-0.177-0.001-0.272-0.027-0.085-0.026-0.167-0.073-0.245-0.139v0l-1.462-1.224c-0.073-0.061-0.133-0.134-0.18-0.217-0.042-0.088-0.067-0.176-0.074-0.263-0.003-0.092 0.006-0.182 0.027-0.272 0.031-0.09 0.077-0.172 0.139-0.245v0l1.56-1.863c0.066-0.079 0.138-0.138 0.217-0.179 0.088-0.042 0.176-0.067 0.263-0.075 0.091-0.013 0.182-0.004 0.272 0.027 0.094 0.026 0.178 0.069 0.251 0.131v0l1.463 1.225c0.079 0.066 0.136 0.141 0.172 0.225 0.046 0.083 0.071 0.171 0.074 0.262 0.013 0.091 0.004 0.182-0.027 0.272-0.021 0.089-0.065 0.173-0.13 0.252zM20.761 83.015l-1.462-1.225-1.561 1.863 1.462 1.225z" fill="#d6350e" data-fill-palette-color="accent"></path><path d="M24.419 85.577l-1.218-0.816-1.746 2.607-0.588-0.393 2.145-3.204 0.588 0.394-0.382 0.57c0.059-0.076 0.125-0.138 0.199-0.187 0.08-0.045 0.162-0.076 0.248-0.093 0.091-0.013 0.18-0.011 0.267 0.006 0.091 0.012 0.176 0.044 0.256 0.097v0l0.631 0.422c0.085 0.057 0.15 0.125 0.195 0.205 0.055 0.078 0.089 0.162 0.102 0.254 0.023 0.089 0.023 0.18 0.003 0.273-0.012 0.091-0.046 0.179-0.103 0.264v0l-0.36 0.537-0.596-0.4z" fill="#d6350e" data-fill-palette-color="accent"></path><path d="M25.003 88.733l0.459-0.859c0.045-0.084 0.104-0.158 0.175-0.221 0.075-0.053 0.155-0.095 0.242-0.126 0.083-0.025 0.174-0.035 0.272-0.03 0.094 0.012 0.184 0.04 0.268 0.086v0l1.619 0.864 0.353-0.66-2.054-1.096 0.339-0.634 2.053 1.097c0.09 0.048 0.162 0.11 0.215 0.184 0.062 0.072 0.104 0.153 0.127 0.242 0.031 0.086 0.041 0.177 0.029 0.272-0.002 0.092-0.028 0.183-0.076 0.273v0l-1.478 2.768-0.633-0.338 0.304-0.57c-0.048 0.075-0.108 0.136-0.179 0.183-0.075 0.053-0.152 0.089-0.232 0.109-0.089 0.022-0.178 0.029-0.267 0.02-0.088-0.008-0.172-0.034-0.25-0.075v0l-0.995-0.532c-0.084-0.045-0.158-0.104-0.22-0.175-0.059-0.078-0.101-0.159-0.127-0.242-0.022-0.089-0.032-0.18-0.029-0.272 0.012-0.094 0.04-0.184 0.085-0.268zM26.086 88.207l-0.459 0.859 1.619 0.865 0.459-0.86z" fill="#d6350e" data-fill-palette-color="accent"></path><path d="M30.271 88.648l0.269-0.666 0.875 0.353 0.441-1.093 0.656 0.265-0.441 1.093 1.179 0.476-0.269 0.666-1.179-0.476-0.91 2.253 1.179 0.476-0.264 0.656-1.179-0.476c-0.089-0.036-0.168-0.086-0.238-0.151-0.061-0.069-0.111-0.144-0.152-0.227-0.031-0.086-0.051-0.175-0.058-0.267 0.002-0.095 0.02-0.187 0.056-0.276v0l0.91-2.253z" fill="#d6350e" data-fill-palette-color="accent"></path><path d="M34.767 89.566l0.684 0.219-1.174 3.672-0.684-0.219zM34.963 88.853l0.225-0.703 0.742 0.237-0.225 0.704z" fill="#d6350e" data-fill-palette-color="accent"></path><path d="M37.925 94.337l-0.72-0.161-0.67-4.1 0.73 0.163 0.485 3.187 1.797-2.677 0.72 0.161z" fill="#d6350e" data-fill-palette-color="accent"></path><path d="M44.486 92.169l-0.194 1.567-2.534-0.313-0.104 0.844 2.534 0.314-0.087 0.702-2.534-0.313c-0.095-0.012-0.184-0.04-0.268-0.085-0.083-0.052-0.152-0.112-0.205-0.18-0.053-0.075-0.094-0.156-0.125-0.243-0.023-0.092-0.029-0.186-0.017-0.281v0l0.298-2.412c0.013-0.102 0.041-0.191 0.085-0.269 0.052-0.083 0.112-0.152 0.18-0.205 0.069-0.06 0.15-0.102 0.243-0.125 0.093-0.03 0.187-0.039 0.282-0.027v0l1.822 0.225c0.102 0.013 0.191 0.044 0.267 0.095 0.084 0.045 0.152 0.105 0.205 0.181 0.06 0.069 0.102 0.15 0.125 0.242 0.031 0.086 0.04 0.181 0.027 0.283zM43.774 92.081l-1.822-0.225-0.106 0.854 1.822 0.226z" fill="#d6350e" data-fill-palette-color="accent"></path><path d="M48.271 90.941l-0.044-0.747 4.136-0.242 0.044 0.748-1.7 0.099 0.259 4.432-0.737 0.043-0.259-4.432z" fill="#d6350e" data-fill-palette-color="accent"></path><path d="M53.624 94.278l-0.147-0.962c-0.015-0.095-0.012-0.188 0.008-0.282 0.028-0.087 0.067-0.169 0.118-0.246 0.051-0.07 0.118-0.132 0.2-0.186 0.083-0.047 0.171-0.078 0.266-0.093v0l1.814-0.279-0.114-0.739-2.301 0.353-0.109-0.71 2.301-0.353c0.101-0.016 0.196-0.009 0.283 0.019 0.093 0.02 0.175 0.06 0.246 0.118 0.077 0.05 0.139 0.117 0.187 0.199 0.053 0.075 0.087 0.163 0.103 0.265v0l0.476 3.101-0.71 0.109-0.098-0.639c0.007 0.089-0.004 0.174-0.033 0.255-0.028 0.087-0.068 0.163-0.121 0.226-0.058 0.071-0.125 0.13-0.201 0.176-0.076 0.046-0.158 0.076-0.246 0.089v0l-1.115 0.171c-0.095 0.015-0.188 0.012-0.281-0.008-0.094-0.027-0.176-0.066-0.247-0.118-0.071-0.058-0.133-0.125-0.186-0.2-0.047-0.083-0.078-0.171-0.093-0.265zM54.176 93.208l0.148 0.963 1.814-0.278-0.148-0.963z" fill="#d6350e" data-fill-palette-color="accent"></path><path d="M58.554 93.362l2.328-0.622-0.233-0.872-1.635 0.437c-0.099 0.026-0.193 0.034-0.28 0.022-0.095-0.01-0.181-0.04-0.258-0.09-0.082-0.042-0.151-0.101-0.207-0.178-0.063-0.075-0.106-0.159-0.131-0.252v0l-0.212-0.792c-0.026-0.099-0.031-0.194-0.012-0.284 0.01-0.095 0.04-0.181 0.09-0.257 0.042-0.082 0.101-0.151 0.179-0.207 0.069-0.061 0.152-0.104 0.251-0.131v0l2.179-0.583 0.186 0.693-2.179 0.583 0.211 0.793 1.635-0.437c0.092-0.025 0.186-0.032 0.281-0.022 0.09 0.018 0.176 0.049 0.257 0.09 0.077 0.05 0.146 0.11 0.207 0.178 0.056 0.077 0.096 0.162 0.121 0.254v0l0.233 0.872c0.025 0.092 0.032 0.186 0.022 0.281-0.018 0.09-0.049 0.176-0.09 0.257-0.05 0.077-0.11 0.146-0.178 0.207-0.077 0.056-0.162 0.096-0.254 0.121v0l-2.328 0.623z" fill="#d6350e" data-fill-palette-color="accent"></path><path d="M66.792 91.33l-0.937 0.364-2.305-0.866 0.594 1.53-0.66 0.256-1.929-4.971 0.659-0.256 1.087 2.801 1.025-2.037 0.927-0.36-1.246 2.486z" fill="#d6350e" data-fill-palette-color="accent"></path><path d="M72.981 87.858l-0.182 0.113-3.654-2.209 2.007 3.232-0.627 0.389-2.737-4.408 0.688-0.427 3.734 2.28-0.38-4.363 0.688-0.427 2.737 4.408-0.627 0.389-2.007-3.231z" fill="#d6350e" data-fill-palette-color="accent"></path><path d="M76.399 84.611l-0.624-0.748c-0.061-0.073-0.107-0.155-0.138-0.246-0.021-0.089-0.03-0.18-0.026-0.271 0.008-0.087 0.033-0.174 0.075-0.263 0.046-0.083 0.106-0.155 0.179-0.217v0l1.41-1.175-0.48-0.575-1.787 1.491-0.46-0.551 1.788-1.491c0.079-0.066 0.163-0.109 0.252-0.13 0.09-0.031 0.181-0.039 0.271-0.027 0.092 0.003 0.179 0.028 0.263 0.075 0.084 0.037 0.159 0.094 0.225 0.173v0l2.01 2.41-0.552 0.459-0.413-0.496c0.052 0.073 0.086 0.151 0.102 0.235 0.021 0.089 0.025 0.175 0.013 0.256-0.013 0.091-0.04 0.176-0.081 0.255-0.041 0.079-0.096 0.147-0.164 0.204v0l-0.866 0.722c-0.073 0.061-0.155 0.107-0.246 0.138-0.095 0.025-0.185 0.034-0.271 0.026-0.091-0.013-0.179-0.038-0.263-0.074-0.083-0.046-0.155-0.106-0.217-0.18zM76.319 83.41l0.624 0.748 1.409-1.176-0.624-0.748z" fill="#d6350e" data-fill-palette-color="accent"></path><path d="M80.803 77.077l2.267 2.169-0.489 0.511-2.267-2.169-1.376 1.437 2.268 2.169-0.49 0.512-2.785-2.666 0.489-0.511 0.496 0.475c-0.064-0.071-0.114-0.147-0.15-0.229-0.031-0.086-0.047-0.173-0.049-0.26 0.003-0.092 0.02-0.179 0.052-0.262 0.027-0.088 0.074-0.166 0.14-0.235v0l0.886-0.926c0.066-0.069 0.145-0.122 0.236-0.158 0.081-0.036 0.17-0.055 0.267-0.056 0.087-0.002 0.177 0.013 0.269 0.044 0.083 0.032 0.161 0.083 0.236 0.155z" fill="#d6350e" data-fill-palette-color="accent"></path><path d="M83.707 77.308l-0.775-0.59c-0.076-0.058-0.139-0.128-0.189-0.209-0.04-0.082-0.069-0.169-0.086-0.259-0.012-0.086-0.007-0.177 0.014-0.273 0.027-0.091 0.069-0.175 0.127-0.251v0l1.112-1.46-0.595-0.453-1.411 1.851-0.571-0.435 1.411-1.851c0.062-0.082 0.134-0.143 0.217-0.183 0.081-0.05 0.167-0.079 0.259-0.087 0.09-0.017 0.181-0.012 0.272 0.015 0.09 0.017 0.176 0.057 0.258 0.119v0l2.496 1.901-0.435 0.571-0.514-0.392c0.067 0.059 0.117 0.128 0.152 0.207 0.04 0.082 0.064 0.165 0.07 0.246 0.008 0.092 0 0.18-0.022 0.267-0.023 0.086-0.061 0.164-0.115 0.235v0l-0.684 0.897c-0.058 0.076-0.128 0.139-0.208 0.189-0.086 0.046-0.173 0.075-0.259 0.086-0.092 0.008-0.183 0.003-0.273-0.014-0.091-0.027-0.175-0.069-0.251-0.127zM83.361 76.155l0.775 0.59 1.112-1.46-0.775-0.59z" fill="#d6350e" data-fill-palette-color="accent"></path><path d="M86.53 73.073l-1.954-1.168c-0.088-0.053-0.158-0.115-0.211-0.187-0.055-0.081-0.093-0.163-0.115-0.247-0.027-0.088-0.032-0.179-0.016-0.273 0.01-0.097 0.04-0.187 0.089-0.269v0l0.653-1.091c0.049-0.082 0.112-0.148 0.189-0.198 0.075-0.059 0.155-0.099 0.239-0.119 0.088-0.027 0.176-0.034 0.264-0.022 0.091 0.007 0.18 0.032 0.266 0.075v0l-0.59-0.352 0.363-0.608 4.031 2.411c0.088 0.053 0.158 0.115 0.211 0.186 0.055 0.081 0.093 0.163 0.115 0.248 0.024 0.094 0.029 0.185 0.016 0.272-0.01 0.097-0.04 0.187-0.089 0.27v0l-1.158 1.936-0.616-0.369 1.158-1.936-0.845-0.505-1.021 1.707c-0.049 0.082-0.114 0.151-0.195 0.206-0.075 0.059-0.158 0.097-0.248 0.115-0.084 0.021-0.175 0.027-0.273 0.016-0.088-0.013-0.176-0.045-0.264-0.098zM86.893 72.466l1.021-1.707-1.954-1.169-1.021 1.707z" fill="#d6350e" data-fill-palette-color="accent"></path><path d="M88.344 64.588l1.438 0.654-1.057 2.324 0.774 0.353 1.057-2.324 0.644 0.293-1.057 2.324c-0.04 0.087-0.093 0.164-0.161 0.23-0.074 0.064-0.152 0.111-0.233 0.142-0.088 0.028-0.177 0.043-0.269 0.047-0.095-0.006-0.186-0.028-0.274-0.068v0l-2.212-1.006c-0.093-0.042-0.17-0.096-0.231-0.162-0.064-0.074-0.111-0.152-0.141-0.233-0.037-0.084-0.052-0.174-0.047-0.269-0.001-0.098 0.019-0.19 0.059-0.278v0l0.76-1.67c0.042-0.093 0.099-0.169 0.17-0.227 0.068-0.067 0.146-0.114 0.234-0.142 0.084-0.037 0.174-0.052 0.269-0.046 0.092-0.003 0.184 0.016 0.277 0.058zM88.047 65.242l-0.76 1.671 0.784 0.356 0.76-1.671z" fill="#d6350e" data-fill-palette-color="accent"></path><path d="M89.543 61.033l-0.462 1.391 2.978 0.989-0.223 0.671-3.659-1.214 0.222-0.672 0.652 0.217c-0.089-0.037-0.167-0.084-0.233-0.143-0.065-0.065-0.117-0.136-0.156-0.214-0.037-0.084-0.059-0.171-0.065-0.259-0.013-0.091-0.005-0.182 0.025-0.272v0l0.239-0.72c0.032-0.097 0.081-0.178 0.146-0.244 0.06-0.074 0.133-0.129 0.217-0.165 0.08-0.045 0.167-0.07 0.263-0.075 0.091-0.013 0.185-0.003 0.282 0.028v0l0.613 0.204-0.226 0.681z" fill="#d6350e" data-fill-palette-color="accent"></path><path d="M0.661 48.355c0-1.125 0.912-2.037 2.037-2.037 1.125 0 2.037 0.912 2.037 2.037 0 1.125-0.912 2.037-2.037 2.037-1.125 0-2.037-0.912-2.037-2.037z" fill="#d6350e" data-fill-palette-color="accent"></path><path d="M90.548 48.355c0-1.125 0.912-2.037 2.037-2.037 1.125 0 2.037 0.912 2.037 2.037 0 1.125-0.912 2.037-2.037 2.037-1.125 0-2.037-0.912-2.037-2.037z" fill="#d6350e" data-fill-palette-color="accent"></path></g><g id="text-1"></g></svg></g></svg></g><g></g></svg></g><defs></defs></svg><rect width="395.52" height="137.16155201901432" fill="none" stroke="none" visibility="hidden"></rect></g></svg></g></svg>